<?xml version="1.0" encoding="UTF-8"?>
<svg id="Capa_1" data-name="Capa 1" xmlns="http://www.w3.org/2000/svg" viewBox="0 0 500 500">
  <defs>
    <style>
      .cls-1 {
        fill: none;
        stroke: #000;
        stroke-miterlimit: 10;
        stroke-width: 20px;
      }
    </style>
  </defs>
  <path class="cls-1" d="m37.6,10h427.4c13.8,0,25,11.2,25,25v39.1c0,13.8-11.2,25-25,25H37.6c-15.2,0-27.6-12.3-27.6-27.6v-34c0-15.2,12.3-27.6,27.6-27.6Z"/>
  <path class="cls-1" d="m37.6,205.5h427.4c13.8,0,25,11.2,25,25v39.1c0,13.8-11.2,25-25,25H37.6c-15.2,0-27.6-12.3-27.6-27.6v-34c0-15.2,12.3-27.6,27.6-27.6Z"/>
  <path class="cls-1" d="m37.6,400.9h427.4c13.8,0,25,11.2,25,25v39.1c0,13.8-11.2,25-25,25H37.6c-15.2,0-27.6-12.3-27.6-27.6v-34c0-15.2,12.3-27.6,27.6-27.6Z"/>
</svg>